<svg id="visual" viewBox="0 0 900 450" width="900" height="450" xmlns="http://www.w3.org/2000/svg" xmlns:xlink="http://www.w3.org/1999/xlink" version="1.1"><rect x="0" y="0" width="900" height="450" fill="#A9D6E7"></rect><path d="M0 330L21.5 333C43 336 86 342 128.8 334.2C171.7 326.3 214.3 304.7 257.2 302.2C300 299.7 343 316.3 385.8 318.5C428.7 320.7 471.3 308.3 514.2 304.7C557 301 600 306 642.8 317.3C685.7 328.7 728.3 346.3 771.2 345.8C814 345.3 857 326.7 878.5 317.3L900 308L900 451L878.5 451C857 451 814 451 771.2 451C728.3 451 685.7 451 642.8 451C600 451 557 451 514.2 451C471.3 451 428.7 451 385.8 451C343 451 300 451 257.2 451C214.3 451 171.7 451 128.8 451C86 451 43 451 21.5 451L0 451Z" fill="#ffffff" stroke-linecap="round" stroke-linejoin="miter"></path></svg>