<svg id="visual" viewBox="0 0 900 600" width="900" height="450" xmlns="http://www.w3.org/2000/svg" xmlns:xlink="http://www.w3.org/1999/xlink" version="1.1"><rect x="0" y="0" width="900" height="450"  fill="#FEF6ED"></rect><path d="M0 502L21.5 484.7C43 467.3 86 432.7 128.8 425C171.7 417.3 214.3 436.7 257.2 447.8C300 459 343 462 385.8 457C428.7 452 471.3 439 514.2 424.5C557 410 600 394 642.8 389C685.7 384 728.3 390 771.2 414.3C814 438.7 857 481.3 878.5 502.7L900 524L900 601L878.5 601C857 601 814 601 771.2 601C728.3 601 685.7 601 642.8 601C600 601 557 601 514.2 601C471.3 601 428.7 601 385.8 601C343 601 300 601 257.2 601C214.3 601 171.7 601 128.8 601C86 601 43 601 21.5 601L0 601Z" fill="#FFFFFF" stroke-linecap="round" stroke-linejoin="miter"></path></svg>